<?xml version="1.0" standalone="no"?>
<!DOCTYPE svg PUBLIC "-//W3C//DTD SVG 20010904//EN"
 "http://www.w3.org/TR/2001/REC-SVG-20010904/DTD/svg10.dtd">
<svg version="1.0" xmlns="http://www.w3.org/2000/svg"
 width="80.000000pt" height="80.000000pt" viewBox="0 0 80.000000 80.000000"
 preserveAspectRatio="xMidYMid meet">
<metadata>
Created by potrace 1.14, written by Peter Selinger 2001-2017
</metadata>
<g transform="translate(0.000000,80.000000) scale(0.100000,-0.100000)"
fill="#000000" stroke="none">
<path d="M415 758 c-11 -6 -38 -29 -60 -50 -22 -21 -43 -38 -47 -38 -5 0 -8
-5 -8 -10 0 -6 -10 -22 -23 -36 -35 -38 -85 -124 -106 -185 -64 -180 48 -352
229 -352 141 0 248 107 247 248 0 79 -19 116 -118 223 -62 67 -88 121 -82 167
5 38 -4 48 -32 33z"/>
</g>
</svg>
